<?xml version="1.0" encoding="UTF-8" standalone="no"?>
<!DOCTYPE svg PUBLIC "-//W3C//DTD SVG 1.1//EN"
 "http://www.w3.org/Graphics/SVG/1.1/DTD/svg11.dtd">
<!-- Generated by graphviz version 13.1.2 (20250808.2320)
 -->
<!-- Title: G Pages: 1 -->
<svg width="1197pt" height="695pt"
 viewBox="0.00 0.00 1197.00 695.00" xmlns="http://www.w3.org/2000/svg" xmlns:xlink="http://www.w3.org/1999/xlink">
<g id="graph0" class="graph" transform="scale(1 1) rotate(0) translate(4 690.88)">
<title>G</title><style>.edge>path:hover{stroke-width:8}</style>
<polygon fill="white" stroke="none" points="-4,4 -4,-690.88 1193.02,-690.88 1193.02,4 -4,4"/>
<!-- branca -->
<g id="node1" class="node">
<title>branca</title><style>.edge>path:hover{stroke-width:8}</style>
<ellipse fill="#cc3333" stroke="black" cx="1162.02" cy="-411.05" rx="27" ry="18"/>
<text xml:space="preserve" text-anchor="middle" x="1162.02" y="-407.18" font-family="Helvetica,sans-Serif" font-size="10.00" fill="#ffffff">branca</text>
</g>
<!-- folium -->
<g id="node2" class="node">
<title>folium</title><style>.edge>path:hover{stroke-width:8}</style>
<ellipse fill="#c48931" stroke="black" cx="1135.02" cy="-324.66" rx="27" ry="18"/>
<text xml:space="preserve" text-anchor="middle" x="1135.02" y="-320.78" font-family="Helvetica,sans-Serif" font-size="10.00" fill="#000000">folium</text>
</g>
<!-- branca&#45;&gt;folium -->
<g id="edge1" class="edge">
<title>branca&#45;&gt;folium</title><style>.edge>path:hover{stroke-width:8}</style>
<path fill="none" stroke="black" d="M1156.56,-392.97C1152.94,-381.65 1148.1,-366.53 1143.93,-353.49"/>
<polygon fill="#cc3333" stroke="black" points="1147.32,-352.61 1140.94,-344.15 1140.65,-354.74 1147.32,-352.61"/>
</g>
<!-- gnnwr_utils -->
<g id="node8" class="node">
<title>gnnwr_utils</title><style>.edge>path:hover{stroke-width:8}</style>
<ellipse fill="#849b26" stroke="black" cx="749.02" cy="-162" rx="36.98" ry="18"/>
<text xml:space="preserve" text-anchor="middle" x="749.02" y="-158.12" font-family="Helvetica,sans-Serif" font-size="10.00" fill="#000000">gnnwr.utils</text>
</g>
<!-- branca&#45;&gt;gnnwr_utils -->
<g id="edge2" class="edge">
<title>branca&#45;&gt;gnnwr_utils</title><style>.edge>path:hover{stroke-width:8}</style>
<path fill="none" stroke="black" d="M1169.33,-393.23C1178.49,-369.31 1190.74,-325.04 1171.02,-295.13 1135.89,-241.85 1073.49,-292.29 1039.02,-238.57"/>
</g>
<!-- folium&#45;&gt;gnnwr_utils -->
<g id="edge3" class="edge">
<title>folium&#45;&gt;gnnwr_utils</title><style>.edge>path:hover{stroke-width:8}</style>
<path fill="none" stroke="black" d="M1118.67,-310C1092.76,-288.25 1044.61,-247.28 1039.02,-238.57"/>
</g>
<!-- folium_plugins -->
<g id="node3" class="node">
<title>folium_plugins</title><style>.edge>path:hover{stroke-width:8}</style>
<ellipse fill="#b8873d" stroke="black" cx="825.02" cy="-324.66" rx="44.97" ry="18"/>
<text xml:space="preserve" text-anchor="middle" x="825.02" y="-320.78" font-family="Helvetica,sans-Serif" font-size="10.00" fill="#000000">folium.plugins</text>
</g>
<!-- folium_plugins&#45;&gt;gnnwr_utils -->
<g id="edge4" class="edge">
<title>folium_plugins&#45;&gt;gnnwr_utils</title><style>.edge>path:hover{stroke-width:8}</style>
<path fill="none" stroke="black" d="M850.19,-309.38C859.15,-304.56 869.41,-299.35 879.02,-295.13 948.11,-264.87 1079.75,-302.05 1039.02,-238.57"/>
<path fill="none" stroke="black" d="M1039.02,-236.57C1012.94,-195.92 871.74,-175.51 796.42,-167.38"/>
<polygon fill="#b8873d" stroke="black" points="797.18,-163.94 786.87,-166.38 796.45,-170.9 797.18,-163.94"/>
</g>
<!-- gnnwr -->
<g id="node4" class="node">
<title>gnnwr</title><style>.edge>path:hover{stroke-width:8}</style>
<ellipse fill="#8b9d43" stroke="black" cx="594.02" cy="-18" rx="27" ry="18"/>
<text xml:space="preserve" text-anchor="middle" x="594.02" y="-14.12" font-family="Helvetica,sans-Serif" font-size="10.00" fill="#000000">gnnwr</text>
</g>
<!-- gnnwr_datasets -->
<g id="node5" class="node">
<title>gnnwr_datasets</title><style>.edge>path:hover{stroke-width:8}</style>
<ellipse fill="#687a1e" stroke="black" cx="489.02" cy="-162" rx="48.52" ry="18"/>
<text xml:space="preserve" text-anchor="middle" x="489.02" y="-158.12" font-family="Helvetica,sans-Serif" font-size="10.00" fill="#ffffff">gnnwr.datasets</text>
</g>
<!-- gnnwr_datasets&#45;&gt;gnnwr -->
<g id="edge5" class="edge">
<title>gnnwr_datasets&#45;&gt;gnnwr</title><style>.edge>path:hover{stroke-width:8}</style>
<path fill="none" stroke="black" d="M496.97,-144.07C506.07,-125.51 522.06,-95.26 540.02,-72 548.72,-60.74 559.72,-49.53 569.52,-40.33"/>
<polygon fill="#687a1e" stroke="black" points="571.6,-43.17 576.61,-33.84 566.87,-38 571.6,-43.17"/>
</g>
<!-- gnnwr_models -->
<g id="node6" class="node">
<title>gnnwr_models</title><style>.edge>path:hover{stroke-width:8}</style>
<ellipse fill="#637326" stroke="black" cx="594.02" cy="-90" rx="44.97" ry="18"/>
<text xml:space="preserve" text-anchor="middle" x="594.02" y="-86.12" font-family="Helvetica,sans-Serif" font-size="10.00" fill="#ffffff">gnnwr.models</text>
</g>
<!-- gnnwr_datasets&#45;&gt;gnnwr_models -->
<g id="edge6" class="edge">
<title>gnnwr_datasets&#45;&gt;gnnwr_models</title><style>.edge>path:hover{stroke-width:8}</style>
<path fill="none" stroke="black" d="M511.81,-145.81C526.63,-135.93 546.17,-122.9 562.47,-112.03"/>
<polygon fill="#687a1e" stroke="black" points="564.01,-115.22 570.38,-106.76 560.12,-109.39 564.01,-115.22"/>
</g>
<!-- gnnwr_models&#45;&gt;gnnwr -->
<g id="edge7" class="edge">
<title>gnnwr_models&#45;&gt;gnnwr</title><style>.edge>path:hover{stroke-width:8}</style>
<path fill="none" stroke="black" d="M594.02,-71.7C594.02,-64.41 594.02,-55.73 594.02,-47.54"/>
<polygon fill="#637326" stroke="black" points="597.52,-47.62 594.02,-37.62 590.52,-47.62 597.52,-47.62"/>
</g>
<!-- gnnwr_networks -->
<g id="node7" class="node">
<title>gnnwr_networks</title><style>.edge>path:hover{stroke-width:8}</style>
<ellipse fill="#a7c431" stroke="black" cx="644.02" cy="-162" rx="49.85" ry="18"/>
<text xml:space="preserve" text-anchor="middle" x="644.02" y="-158.12" font-family="Helvetica,sans-Serif" font-size="10.00" fill="#000000">gnnwr.networks</text>
</g>
<!-- gnnwr_networks&#45;&gt;gnnwr -->
<g id="edge8" class="edge">
<title>gnnwr_networks&#45;&gt;gnnwr</title><style>.edge>path:hover{stroke-width:8}</style>
<path fill="none" stroke="black" d="M668.07,-145.83C686.35,-132.25 706.68,-111.39 696.02,-91"/>
<path fill="none" stroke="black" d="M696.02,-89C681.79,-61.76 651.6,-43.11 627.74,-31.95"/>
<polygon fill="#a7c431" stroke="black" points="629.25,-28.79 618.69,-27.95 626.43,-35.19 629.25,-28.79"/>
</g>
<!-- gnnwr_networks&#45;&gt;gnnwr_models -->
<g id="edge9" class="edge">
<title>gnnwr_networks&#45;&gt;gnnwr_models</title><style>.edge>path:hover{stroke-width:8}</style>
<path fill="none" stroke="black" d="M631.92,-144.05C626.15,-135.97 619.11,-126.12 612.67,-117.11"/>
<polygon fill="#a7c431" stroke="black" points="615.55,-115.12 606.89,-109.02 609.86,-119.19 615.55,-115.12"/>
</g>
<!-- gnnwr_utils&#45;&gt;gnnwr -->
<g id="edge10" class="edge">
<title>gnnwr_utils&#45;&gt;gnnwr</title><style>.edge>path:hover{stroke-width:8}</style>
<path fill="none" stroke="black" d="M734.5,-145.09C722.77,-131.54 706.54,-111.13 696.02,-91"/>
</g>
<!-- gnnwr_utils&#45;&gt;gnnwr_models -->
<g id="edge11" class="edge">
<title>gnnwr_utils&#45;&gt;gnnwr_models</title><style>.edge>path:hover{stroke-width:8}</style>
<path fill="none" stroke="black" d="M722.73,-149.13C698.22,-138.06 661.35,-121.4 633.34,-108.76"/>
<polygon fill="#849b26" stroke="black" points="635.02,-105.67 624.47,-104.75 632.14,-112.05 635.02,-105.67"/>
</g>
<!-- numpy -->
<g id="node9" class="node">
<title>numpy</title><style>.edge>path:hover{stroke-width:8}</style>
<ellipse fill="#37f906" stroke="black" cx="132.02" cy="-668.88" rx="27" ry="18"/>
<text xml:space="preserve" text-anchor="middle" x="132.02" y="-665.01" font-family="Helvetica,sans-Serif" font-size="10.00" fill="#000000">numpy</text>
</g>
<!-- numpy&#45;&gt;gnnwr_datasets -->
<g id="edge12" class="edge">
<title>numpy&#45;&gt;gnnwr_datasets</title><style>.edge>path:hover{stroke-width:8}</style>
<path fill="none" stroke="black" d="M143.02,-504.4C132.45,-489.49 133.2,-483.73 124.02,-467.93 109.18,-442.38 76.91,-439.42 88.02,-412.05"/>
<path fill="none" stroke="black" d="M157.51,-662.06C189.04,-653.5 242.09,-634.42 271.02,-597.88"/>
<path fill="none" stroke="black" d="M271.02,-595.88C304.46,-553.65 200.64,-580.44 162.02,-542.88 148.92,-530.13 153.6,-521.31 143.02,-506.4"/>
</g>
<!-- numpy&#45;&gt;gnnwr_models -->
<g id="edge13" class="edge">
<title>numpy&#45;&gt;gnnwr_models</title><style>.edge>path:hover{stroke-width:8}</style>
<path fill="none" stroke="black" d="M448.02,-504.4C471.25,-475.59 419.57,-466.74 407.02,-431.93 390.76,-386.79 394.45,-373.2 388.02,-325.66"/>
<path fill="none" stroke="black" d="M271.02,-595.88C325.74,-526.77 390.52,-573.21 448.02,-506.4"/>
</g>
<!-- scipy -->
<g id="node11" class="node">
<title>scipy</title><style>.edge>path:hover{stroke-width:8}</style>
<ellipse fill="#24d0d0" stroke="black" cx="105.02" cy="-596.88" rx="27" ry="18"/>
<text xml:space="preserve" text-anchor="middle" x="105.02" y="-593.01" font-family="Helvetica,sans-Serif" font-size="10.00" fill="#000000">scipy</text>
</g>
<!-- numpy&#45;&gt;scipy -->
<g id="edge14" class="edge">
<title>numpy&#45;&gt;scipy</title><style>.edge>path:hover{stroke-width:8}</style>
<path fill="none" stroke="black" d="M125.49,-650.94C122.5,-643.2 118.89,-633.84 115.54,-625.15"/>
<polygon fill="#37f906" stroke="black" points="118.91,-624.15 112.04,-616.08 112.38,-626.67 118.91,-624.15"/>
</g>
<!-- scipy_spatial_distance -->
<g id="node13" class="node">
<title>scipy_spatial_distance</title><style>.edge>path:hover{stroke-width:8}</style>
<polygon fill="blue" stroke="black" points="170.02,-431.93 116.02,-431.93 116.02,-390.18 170.02,-390.18 170.02,-431.93"/>
<text xml:space="preserve" text-anchor="middle" x="143.02" y="-418.43" font-family="Helvetica,sans-Serif" font-size="10.00" fill="white">scipy.</text>
<text xml:space="preserve" text-anchor="middle" x="143.02" y="-407.18" font-family="Helvetica,sans-Serif" font-size="10.00" fill="white">spatial.</text>
<text xml:space="preserve" text-anchor="middle" x="143.02" y="-395.93" font-family="Helvetica,sans-Serif" font-size="10.00" fill="white">distance</text>
</g>
<!-- numpy&#45;&gt;scipy_spatial_distance -->
<g id="edge15" class="edge">
<title>numpy&#45;&gt;scipy_spatial_distance</title><style>.edge>path:hover{stroke-width:8}</style>
<path fill="none" stroke="black" d="M143.02,-504.4C130.65,-486.97 131.17,-462.64 134.5,-443.34"/>
<polygon fill="#37f906" stroke="black" points="137.93,-444.05 136.54,-433.55 131.08,-442.62 137.93,-444.05"/>
</g>
<!-- sklearn -->
<g id="node14" class="node">
<title>sklearn</title><style>.edge>path:hover{stroke-width:8}</style>
<ellipse fill="#2469d0" stroke="black" cx="330.02" cy="-324.66" rx="28.11" ry="18"/>
<text xml:space="preserve" text-anchor="middle" x="330.02" y="-320.78" font-family="Helvetica,sans-Serif" font-size="10.00" fill="#ffffff">sklearn</text>
</g>
<!-- numpy&#45;&gt;sklearn -->
<g id="edge16" class="edge">
<title>numpy&#45;&gt;sklearn</title><style>.edge>path:hover{stroke-width:8}</style>
<path fill="none" stroke="black" d="M271.02,-595.88C325.55,-521.85 264.66,-477.64 293.02,-390.18 297.49,-376.4 305.14,-362.31 312.34,-350.83"/>
<polygon fill="#37f906" stroke="black" points="315.08,-353.03 317.62,-342.75 309.22,-349.21 315.08,-353.03"/>
</g>
<!-- torch -->
<g id="node19" class="node">
<title>torch</title><style>.edge>path:hover{stroke-width:8}</style>
<polygon fill="blue" stroke="black" points="724.02,-342.66 670.02,-342.66 670.02,-306.66 724.02,-306.66 724.02,-342.66"/>
<text xml:space="preserve" text-anchor="middle" x="697.02" y="-320.78" font-family="Helvetica,sans-Serif" font-size="10.00" fill="white">torch</text>
</g>
<!-- numpy&#45;&gt;torch -->
<g id="edge17" class="edge">
<title>numpy&#45;&gt;torch</title><style>.edge>path:hover{stroke-width:8}</style>
<path fill="none" stroke="black" d="M448.02,-504.4C508.27,-405.46 568.25,-423.56 661.02,-354.18 662.79,-352.85 664.61,-351.48 666.43,-350.08"/>
<polygon fill="#37f906" stroke="black" points="668.53,-352.88 674.28,-343.98 664.24,-347.35 668.53,-352.88"/>
</g>
<!-- pandas -->
<g id="node10" class="node">
<title>pandas</title><style>.edge>path:hover{stroke-width:8}</style>
<ellipse fill="#26d96e" stroke="black" cx="459.02" cy="-324.66" rx="28.11" ry="18"/>
<text xml:space="preserve" text-anchor="middle" x="459.02" y="-320.78" font-family="Helvetica,sans-Serif" font-size="10.00" fill="#000000">pandas</text>
</g>
<!-- pandas&#45;&gt;gnnwr_datasets -->
<g id="edge18" class="edge">
<title>pandas&#45;&gt;gnnwr_datasets</title><style>.edge>path:hover{stroke-width:8}</style>
<path fill="none" stroke="black" d="M434.55,-315.28C382.69,-297.17 267.01,-254.7 274.02,-238.57"/>
</g>
<!-- pandas&#45;&gt;gnnwr_models -->
<g id="edge19" class="edge">
<title>pandas&#45;&gt;gnnwr_models</title><style>.edge>path:hover{stroke-width:8}</style>
<path fill="none" stroke="black" d="M530.02,-236.57C544.73,-203.27 549.44,-195.4 566.02,-163"/>
<path fill="none" stroke="black" d="M475.31,-309.48C492.03,-293.91 517.35,-267.25 530.02,-238.57"/>
</g>
<!-- pandas&#45;&gt;gnnwr_utils -->
<g id="edge20" class="edge">
<title>pandas&#45;&gt;gnnwr_utils</title><style>.edge>path:hover{stroke-width:8}</style>
<path fill="none" stroke="black" d="M477.48,-310.8C508.28,-289.64 572.46,-246.73 630.02,-216 656.32,-201.96 687.08,-188.33 710.75,-178.4"/>
<polygon fill="#26d96e" stroke="black" points="711.78,-181.76 719.68,-174.7 709.1,-175.3 711.78,-181.76"/>
</g>
<!-- scipy&#45;&gt;gnnwr_datasets -->
<g id="edge21" class="edge">
<title>scipy&#45;&gt;gnnwr_datasets</title><style>.edge>path:hover{stroke-width:8}</style>
<path fill="none" stroke="black" d="M88.02,-410.05C100.24,-381.78 111.57,-379.56 129.02,-354.18 146.71,-328.46 144.03,-316.24 167.02,-295.13 206.65,-258.76 252.58,-287.9 274.02,-238.57"/>
<path fill="none" stroke="black" d="M80.2,-589.41C57.94,-582.14 26.59,-567.95 12.02,-542.88 -4.71,-514.08 -3.02,-497.65 12.02,-467.93 30.95,-430.52 71.39,-450.54 88.02,-412.05"/>
</g>
<!-- scipy_spatial -->
<g id="node12" class="node">
<title>scipy_spatial</title><style>.edge>path:hover{stroke-width:8}</style>
<polygon fill="blue" stroke="black" points="245.65,-342.66 176.4,-342.66 176.4,-306.66 245.65,-306.66 245.65,-342.66"/>
<text xml:space="preserve" text-anchor="middle" x="211.02" y="-320.78" font-family="Helvetica,sans-Serif" font-size="10.00" fill="white">scipy.spatial</text>
</g>
<!-- scipy_spatial&#45;&gt;gnnwr_datasets -->
<g id="edge22" class="edge">
<title>scipy_spatial&#45;&gt;gnnwr_datasets</title><style>.edge>path:hover{stroke-width:8}</style>
<path fill="none" stroke="black" d="M227.68,-306.26C242.23,-290.05 262.74,-264.53 274.02,-238.57"/>
</g>
<!-- scipy_spatial_distance&#45;&gt;gnnwr_datasets -->
<g id="edge23" class="edge">
<title>scipy_spatial_distance&#45;&gt;gnnwr_datasets</title><style>.edge>path:hover{stroke-width:8}</style>
<path fill="none" stroke="black" d="M170.44,-396.59C203.02,-380.56 253.27,-355.73 255.02,-354.18 266.44,-344.1 270.93,-340.57 274.02,-325.66"/>
<path fill="none" stroke="black" d="M274.02,-323.66C281.71,-286.63 258.95,-273.25 274.02,-238.57"/>
</g>
<!-- scipy_spatial_distance&#45;&gt;scipy_spatial -->
<g id="edge24" class="edge">
<title>scipy_spatial_distance&#45;&gt;scipy_spatial</title><style>.edge>path:hover{stroke-width:8}</style>
<path fill="none" stroke="black" d="M159.14,-390.05C168.34,-378.63 179.98,-364.18 189.91,-351.86"/>
<polygon fill="blue" stroke="black" points="192.6,-354.1 196.14,-344.12 187.14,-349.71 192.6,-354.1"/>
</g>
<!-- sklearn&#45;&gt;gnnwr_datasets -->
<g id="edge25" class="edge">
<title>sklearn&#45;&gt;gnnwr_datasets</title><style>.edge>path:hover{stroke-width:8}</style>
<path fill="none" stroke="black" d="M311.61,-310.92C291,-294.95 261.97,-266.3 274.02,-238.57"/>
</g>
<!-- sklearn&#45;&gt;gnnwr_models -->
<g id="edge26" class="edge">
<title>sklearn&#45;&gt;gnnwr_models</title><style>.edge>path:hover{stroke-width:8}</style>
<path fill="none" stroke="black" d="M330.02,-236.57C379.75,-138.6 515.96,-260.8 566.02,-163"/>
<path fill="none" stroke="black" d="M325.71,-306.63C322.1,-288.66 319.12,-260.04 330.02,-238.57"/>
<path fill="none" stroke="black" d="M566.02,-161C572.94,-147.48 579.34,-131.84 584.27,-118.78"/>
<polygon fill="#2469d0" stroke="black" points="587.51,-120.09 587.68,-109.5 580.94,-117.68 587.51,-120.09"/>
</g>
<!-- sklearn_metrics -->
<g id="node15" class="node">
<title>sklearn_metrics</title><style>.edge>path:hover{stroke-width:8}</style>
<ellipse fill="#3d6eb8" stroke="black" cx="394.02" cy="-237.57" rx="35.71" ry="21.57"/>
<text xml:space="preserve" text-anchor="middle" x="394.02" y="-239.32" font-family="Helvetica,sans-Serif" font-size="10.00" fill="#ffffff">sklearn.</text>
<text xml:space="preserve" text-anchor="middle" x="394.02" y="-228.07" font-family="Helvetica,sans-Serif" font-size="10.00" fill="#ffffff">metrics</text>
</g>
<!-- sklearn_metrics&#45;&gt;gnnwr_models -->
<g id="edge27" class="edge">
<title>sklearn_metrics&#45;&gt;gnnwr_models</title><style>.edge>path:hover{stroke-width:8}</style>
<path fill="none" stroke="black" d="M421.43,-223.48C427.19,-220.89 433.27,-218.27 439.02,-216 495.93,-193.59 539.74,-218.23 566.02,-163"/>
</g>
<!-- sklearn_preprocessing -->
<g id="node16" class="node">
<title>sklearn_preprocessing</title><style>.edge>path:hover{stroke-width:8}</style>
<ellipse fill="#537bb6" stroke="black" cx="66.02" cy="-324.66" rx="54.27" ry="21.57"/>
<text xml:space="preserve" text-anchor="middle" x="66.02" y="-326.41" font-family="Helvetica,sans-Serif" font-size="10.00" fill="#ffffff">sklearn.</text>
<text xml:space="preserve" text-anchor="middle" x="66.02" y="-315.16" font-family="Helvetica,sans-Serif" font-size="10.00" fill="#ffffff">preprocessing</text>
</g>
<!-- sklearn_preprocessing&#45;&gt;gnnwr_datasets -->
<g id="edge28" class="edge">
<title>sklearn_preprocessing&#45;&gt;gnnwr_datasets</title><style>.edge>path:hover{stroke-width:8}</style>
<path fill="none" stroke="black" d="M102.33,-308.32C112.57,-304.03 123.72,-299.37 134.02,-295.13 196.08,-269.58 247.27,-300.11 274.02,-238.57"/>
<path fill="none" stroke="black" d="M274.02,-236.57C287.21,-206.23 375.37,-184.07 434.63,-172.39"/>
<polygon fill="#537bb6" stroke="black" points="435.05,-175.88 444.21,-170.55 433.73,-169 435.05,-175.88"/>
</g>
<!-- statsmodels -->
<g id="node17" class="node">
<title>statsmodels</title><style>.edge>path:hover{stroke-width:8}</style>
<ellipse fill="#5133cc" stroke="black" cx="929.02" cy="-324.66" rx="40.97" ry="18"/>
<text xml:space="preserve" text-anchor="middle" x="929.02" y="-320.78" font-family="Helvetica,sans-Serif" font-size="10.00" fill="#ffffff">statsmodels</text>
</g>
<!-- statsmodels&#45;&gt;gnnwr_utils -->
<g id="edge29" class="edge">
<title>statsmodels&#45;&gt;gnnwr_utils</title><style>.edge>path:hover{stroke-width:8}</style>
<path fill="none" stroke="black" d="M951.93,-309.29C985.89,-287.57 1045,-247.89 1039.02,-238.57"/>
</g>
<!-- statsmodels_api -->
<g id="node18" class="node">
<title>statsmodels_api</title><style>.edge>path:hover{stroke-width:8}</style>
<ellipse fill="#614cb3" stroke="black" cx="1039.02" cy="-324.66" rx="51.09" ry="21.57"/>
<text xml:space="preserve" text-anchor="middle" x="1039.02" y="-326.41" font-family="Helvetica,sans-Serif" font-size="10.00" fill="#ffffff">statsmodels.</text>
<text xml:space="preserve" text-anchor="middle" x="1039.02" y="-315.16" font-family="Helvetica,sans-Serif" font-size="10.00" fill="#ffffff">api</text>
</g>
<!-- statsmodels_api&#45;&gt;gnnwr_utils -->
<g id="edge30" class="edge">
<title>statsmodels_api&#45;&gt;gnnwr_utils</title><style>.edge>path:hover{stroke-width:8}</style>
<path fill="none" stroke="black" d="M1044.87,-303.01C1048.81,-284.62 1051.31,-257.71 1039.02,-238.57"/>
</g>
<!-- torch&#45;&gt;gnnwr_datasets -->
<g id="edge31" class="edge">
<title>torch&#45;&gt;gnnwr_datasets</title><style>.edge>path:hover{stroke-width:8}</style>
<path fill="none" stroke="black" d="M679.26,-306.35C673.81,-301.98 667.52,-297.78 661.02,-295.13 580.54,-262.33 239.38,-318.28 274.02,-238.57"/>
</g>
<!-- torch&#45;&gt;gnnwr_models -->
<g id="edge32" class="edge">
<title>torch&#45;&gt;gnnwr_models</title><style>.edge>path:hover{stroke-width:8}</style>
<path fill="none" stroke="black" d="M644.02,-236.57C620.69,-195.01 544.31,-205.42 566.02,-163"/>
<path fill="none" stroke="black" d="M685.59,-306.34C674.52,-289.34 657.48,-262.54 644.02,-238.57"/>
</g>
<!-- torch&#45;&gt;gnnwr_networks -->
<g id="edge33" class="edge">
<title>torch&#45;&gt;gnnwr_networks</title><style>.edge>path:hover{stroke-width:8}</style>
<path fill="none" stroke="black" d="M644.02,-236.57C636.45,-223.08 636.04,-205.89 637.71,-191.52"/>
<polygon fill="blue" stroke="black" points="641.15,-192.18 639.26,-181.75 634.24,-191.08 641.15,-192.18"/>
</g>
<!-- torch&#45;&gt;gnnwr_utils -->
<g id="edge34" class="edge">
<title>torch&#45;&gt;gnnwr_utils</title><style>.edge>path:hover{stroke-width:8}</style>
<path fill="none" stroke="black" d="M702.69,-306.16C711.68,-278.37 729.31,-223.91 740.04,-190.75"/>
<polygon fill="blue" stroke="black" points="743.31,-192.02 743.06,-181.43 736.65,-189.87 743.31,-192.02"/>
</g>
<!-- torch_nn -->
<g id="node20" class="node">
<title>torch_nn</title><style>.edge>path:hover{stroke-width:8}</style>
<polygon fill="blue" stroke="black" points="751.02,-429.05 697.02,-429.05 697.02,-393.05 751.02,-393.05 751.02,-429.05"/>
<text xml:space="preserve" text-anchor="middle" x="724.02" y="-407.18" font-family="Helvetica,sans-Serif" font-size="10.00" fill="white">torch.nn</text>
</g>
<!-- torch_nn&#45;&gt;gnnwr_models -->
<g id="edge35" class="edge">
<title>torch_nn&#45;&gt;gnnwr_models</title><style>.edge>path:hover{stroke-width:8}</style>
<path fill="none" stroke="black" d="M734.58,-392.75C743.63,-376.02 754.78,-349.73 752.02,-325.66"/>
<path fill="none" stroke="black" d="M752.02,-323.66C750.29,-308.52 742.52,-307.04 733.02,-295.13 729.25,-290.4 662.9,-219.59 658.02,-216 620.04,-188 544.52,-205.01 566.02,-163"/>
</g>
<!-- torch_nn&#45;&gt;gnnwr_networks -->
<g id="edge36" class="edge">
<title>torch_nn&#45;&gt;gnnwr_networks</title><style>.edge>path:hover{stroke-width:8}</style>
<path fill="none" stroke="black" d="M752.02,-323.66C750.92,-266.83 704.15,-214.98 672.53,-186.33"/>
<polygon fill="blue" stroke="black" points="675.01,-183.85 665.19,-179.87 670.39,-189.11 675.01,-183.85"/>
</g>
<!-- torch_nn&#45;&gt;torch -->
<g id="edge37" class="edge">
<title>torch_nn&#45;&gt;torch</title><style>.edge>path:hover{stroke-width:8}</style>
<path fill="none" stroke="black" d="M718.43,-392.56C714.84,-381.36 710.11,-366.57 706.01,-353.75"/>
<polygon fill="blue" stroke="black" points="709.45,-353.02 703.07,-344.56 702.78,-355.15 709.45,-353.02"/>
</g>
<!-- torch_optim -->
<g id="node21" class="node">
<title>torch_optim</title><style>.edge>path:hover{stroke-width:8}</style>
<polygon fill="blue" stroke="black" points="480.4,-429.05 415.65,-429.05 415.65,-393.05 480.4,-393.05 480.4,-429.05"/>
<text xml:space="preserve" text-anchor="middle" x="448.02" y="-407.18" font-family="Helvetica,sans-Serif" font-size="10.00" fill="white">torch.optim</text>
</g>
<!-- torch_optim&#45;&gt;gnnwr_models -->
<g id="edge38" class="edge">
<title>torch_optim&#45;&gt;gnnwr_models</title><style>.edge>path:hover{stroke-width:8}</style>
<path fill="none" stroke="black" d="M466.16,-392.9C476.21,-382.53 488.21,-368.56 496.02,-354.18 521.6,-307.12 508.39,-287.56 530.02,-238.57"/>
</g>
<!-- torch_optim&#45;&gt;torch -->
<g id="edge39" class="edge">
<title>torch_optim&#45;&gt;torch</title><style>.edge>path:hover{stroke-width:8}</style>
<path fill="none" stroke="black" d="M480.89,-394.93C485.26,-393.2 489.71,-391.56 494.02,-390.18 566.33,-367.01 592.36,-386.6 661.02,-354.18 663.77,-352.88 666.49,-351.34 669.14,-349.66"/>
<polygon fill="blue" stroke="black" points="670.97,-352.65 677.08,-343.99 666.91,-346.95 670.97,-352.65"/>
</g>
<!-- torch_utils -->
<g id="node22" class="node">
<title>torch_utils</title><style>.edge>path:hover{stroke-width:8}</style>
<polygon fill="blue" stroke="black" points="360.4,-429.05 301.65,-429.05 301.65,-393.05 360.4,-393.05 360.4,-429.05"/>
<text xml:space="preserve" text-anchor="middle" x="331.02" y="-407.18" font-family="Helvetica,sans-Serif" font-size="10.00" fill="white">torch.utils</text>
</g>
<!-- torch_utils&#45;&gt;gnnwr_datasets -->
<g id="edge40" class="edge">
<title>torch_utils&#45;&gt;gnnwr_datasets</title><style>.edge>path:hover{stroke-width:8}</style>
<path fill="none" stroke="black" d="M307.74,-392.61C289.68,-376.79 268.56,-351.97 274.02,-325.66"/>
</g>
<!-- torch_utils&#45;&gt;gnnwr_models -->
<g id="edge41" class="edge">
<title>torch_utils&#45;&gt;gnnwr_models</title><style>.edge>path:hover{stroke-width:8}</style>
<path fill="none" stroke="black" d="M353.38,-392.77C370.85,-377.05 391.62,-352.29 388.02,-325.66"/>
<path fill="none" stroke="black" d="M388.02,-323.66C381.89,-278.3 309.31,-279.38 330.02,-238.57"/>
</g>
<!-- torch_utils&#45;&gt;torch -->
<g id="edge42" class="edge">
<title>torch_utils&#45;&gt;torch</title><style>.edge>path:hover{stroke-width:8}</style>
<path fill="none" stroke="black" d="M360.8,-401.42C374.75,-397.59 391.65,-393.27 407.02,-390.18 518.81,-367.72 556.25,-399.14 661.02,-354.18 663.88,-352.95 666.7,-351.44 669.43,-349.75"/>
<polygon fill="blue" stroke="black" points="671.44,-352.61 677.58,-343.98 667.4,-346.9 671.44,-352.61"/>
</g>
<!-- torch_utils_data -->
<g id="node23" class="node">
<title>torch_utils_data</title><style>.edge>path:hover{stroke-width:8}</style>
<polygon fill="blue" stroke="black" points="358.02,-526.28 304.02,-526.28 304.02,-484.53 358.02,-484.53 358.02,-526.28"/>
<text xml:space="preserve" text-anchor="middle" x="331.02" y="-512.78" font-family="Helvetica,sans-Serif" font-size="10.00" fill="white">torch.</text>
<text xml:space="preserve" text-anchor="middle" x="331.02" y="-501.53" font-family="Helvetica,sans-Serif" font-size="10.00" fill="white">utils.</text>
<text xml:space="preserve" text-anchor="middle" x="331.02" y="-490.28" font-family="Helvetica,sans-Serif" font-size="10.00" fill="white">data</text>
</g>
<!-- torch_utils_data&#45;&gt;gnnwr_datasets -->
<g id="edge43" class="edge">
<title>torch_utils_data&#45;&gt;gnnwr_datasets</title><style>.edge>path:hover{stroke-width:8}</style>
<path fill="none" stroke="black" d="M317.31,-484.13C296.8,-451.37 261.8,-384.5 274.02,-325.66"/>
</g>
<!-- torch_utils_data&#45;&gt;torch_utils -->
<g id="edge44" class="edge">
<title>torch_utils_data&#45;&gt;torch_utils</title><style>.edge>path:hover{stroke-width:8}</style>
<path fill="none" stroke="black" d="M331.02,-484.36C331.02,-471.52 331.02,-454.64 331.02,-440.43"/>
<polygon fill="blue" stroke="black" points="334.52,-440.77 331.02,-430.77 327.52,-440.77 334.52,-440.77"/>
</g>
<!-- torch_utils_data_DataLoader -->
<g id="node24" class="node">
<title>torch_utils_data_DataLoader</title><style>.edge>path:hover{stroke-width:8}</style>
<ellipse fill="#9246a4" stroke="black" cx="68.02" cy="-505.4" rx="46.85" ry="37.48"/>
<text xml:space="preserve" text-anchor="middle" x="68.02" y="-518.4" font-family="Helvetica,sans-Serif" font-size="10.00" fill="#ffffff">torch.</text>
<text xml:space="preserve" text-anchor="middle" x="68.02" y="-507.15" font-family="Helvetica,sans-Serif" font-size="10.00" fill="#ffffff">utils.</text>
<text xml:space="preserve" text-anchor="middle" x="68.02" y="-495.9" font-family="Helvetica,sans-Serif" font-size="10.00" fill="#ffffff">data.</text>
<text xml:space="preserve" text-anchor="middle" x="68.02" y="-484.65" font-family="Helvetica,sans-Serif" font-size="10.00" fill="#ffffff">DataLoader</text>
</g>
<!-- torch_utils_data_DataLoader&#45;&gt;gnnwr_datasets -->
<g id="edge45" class="edge">
<title>torch_utils_data_DataLoader&#45;&gt;gnnwr_datasets</title><style>.edge>path:hover{stroke-width:8}</style>
<path fill="none" stroke="black" d="M72.57,-467.87C75.58,-450.47 80.41,-429.67 88.02,-412.05"/>
</g>
<!-- torch_utils_data_Dataset -->
<g id="node25" class="node">
<title>torch_utils_data_Dataset</title><style>.edge>path:hover{stroke-width:8}</style>
<ellipse fill="#9e4cb3" stroke="black" cx="207.02" cy="-505.4" rx="35.71" ry="37.48"/>
<text xml:space="preserve" text-anchor="middle" x="207.02" y="-518.4" font-family="Helvetica,sans-Serif" font-size="10.00" fill="#ffffff">torch.</text>
<text xml:space="preserve" text-anchor="middle" x="207.02" y="-507.15" font-family="Helvetica,sans-Serif" font-size="10.00" fill="#ffffff">utils.</text>
<text xml:space="preserve" text-anchor="middle" x="207.02" y="-495.9" font-family="Helvetica,sans-Serif" font-size="10.00" fill="#ffffff">data.</text>
<text xml:space="preserve" text-anchor="middle" x="207.02" y="-484.65" font-family="Helvetica,sans-Serif" font-size="10.00" fill="#ffffff">Dataset</text>
</g>
<!-- torch_utils_data_Dataset&#45;&gt;gnnwr_datasets -->
<g id="edge46" class="edge">
<title>torch_utils_data_Dataset&#45;&gt;gnnwr_datasets</title><style>.edge>path:hover{stroke-width:8}</style>
<path fill="none" stroke="black" d="M223.14,-471.43C239.43,-436.28 263.62,-378.49 274.02,-325.66"/>
</g>
<!-- torch_utils_tensorboard -->
<g id="node26" class="node">
<title>torch_utils_tensorboard</title><style>.edge>path:hover{stroke-width:8}</style>
<ellipse fill="#9e4cb3" stroke="black" cx="605.02" cy="-324.66" rx="47.38" ry="29.52"/>
<text xml:space="preserve" text-anchor="middle" x="605.02" y="-332.03" font-family="Helvetica,sans-Serif" font-size="10.00" fill="#ffffff">torch.</text>
<text xml:space="preserve" text-anchor="middle" x="605.02" y="-320.78" font-family="Helvetica,sans-Serif" font-size="10.00" fill="#ffffff">utils.</text>
<text xml:space="preserve" text-anchor="middle" x="605.02" y="-309.53" font-family="Helvetica,sans-Serif" font-size="10.00" fill="#ffffff">tensorboard</text>
</g>
<!-- torch_utils_tensorboard&#45;&gt;gnnwr_models -->
<g id="edge47" class="edge">
<title>torch_utils_tensorboard&#45;&gt;gnnwr_models</title><style>.edge>path:hover{stroke-width:8}</style>
<path fill="none" stroke="black" d="M587.84,-296.65C569.28,-263.78 545,-207.19 566.02,-163"/>
</g>
<!-- tqdm -->
<g id="node27" class="node">
<title>tqdm</title><style>.edge>path:hover{stroke-width:8}</style>
<ellipse fill="#b6538e" stroke="black" cx="475.02" cy="-237.57" rx="27" ry="18"/>
<text xml:space="preserve" text-anchor="middle" x="475.02" y="-233.69" font-family="Helvetica,sans-Serif" font-size="10.00" fill="#ffffff">tqdm</text>
</g>
<!-- tqdm&#45;&gt;gnnwr_models -->
<g id="edge48" class="edge">
<title>tqdm&#45;&gt;gnnwr_models</title><style>.edge>path:hover{stroke-width:8}</style>
<path fill="none" stroke="black" d="M496.69,-226.33C518.79,-214.55 551.79,-192.9 566.02,-163"/>
</g>
</g>
</svg>
